<svg xmlns="http://www.w3.org/2000/svg" xml:space="preserve" fill-rule="evenodd" stroke-linejoin="round" stroke-miterlimit="2" clip-rule="evenodd" viewBox="0 0 200 200"><g transform="translate(-500 -1000) scale(4.16667)"><circle id="water" cx="144" cy="264" r="24" fill="#00e8fe"/><path id="sand" fill="#e1c078" d="M135.668 286.512C126.524 283.123 120 274.317 120 264c0-13.246 10.754-24 24-24 8.002 0 15.095 3.925 19.456 9.952.358 1.726.544 3.495.544 5.298 0 14.369-11.812 26.621-28.332 31.262Z"/><g transform="matrix(.25 0 0 .75 101.088 68.25)"><path id="trunk" fill="#a87525" d="M146 258.333c0-.736-1.792-1.333-4-1.333s-4 .597-4 1.333v17.334c0 .736 1.792 1.333 4 1.333s4-.597 4-1.333v-17.334Z"/></g><g id="coconuts"><circle id="coconut" cx="136.5" cy="278.5" r="2" fill="#8d6606" transform="matrix(.5 0 0 .5 66.81 123.75)"/><circle id="coconut1" cx="136.5" cy="278.5" r="2" fill="#8d6606" transform="matrix(.5 0 0 .5 68.338 123.411)"/><circle id="coconut2" cx="136.5" cy="278.5" r="2" fill="#8d6606" transform="matrix(.5 0 0 .5 69.305 123.676)"/></g><g id="leaves"><path id="leaf" fill="#00a40b" d="M137 265.75c0-.414-.249-.75-.556-.75h-3.388c-.307 0-.556.336-.556.75s.249.75.556.75h3.388c.307 0 .556-.336.556-.75Z" transform="matrix(1.44334 -.92599 .6043 1.12231 -222.58 90.077)"/><path id="leaf1" fill="#00a40b" d="M137 265.75c0-.414-.269-.75-.6-.75h-3.3c-.331 0-.6.336-.6.75s.269.75.6.75h3.3c.331 0 .6-.336.6-.75Z" transform="matrix(1.65029 -.0499 -.02703 1.32147 -82.48 -82.877)"/><path id="leaf2" fill="#00a40b" d="M137 265.75c0-.414-.27-.75-.603-.75h-3.294c-.333 0-.603.336-.603.75s.27.75.603.75h3.294c.333 0 .603-.336.603-.75Z" transform="matrix(1.29972 1.00959 -.76775 1.0805 162.931 -163.489)"/><path id="leaf3" fill="#00a40b" d="M137 265.75c0-.414-.252-.75-.563-.75h-3.374c-.311 0-.563.336-.563.75s.252.75.563.75h3.374c.311 0 .563-.336.563-.75Z" transform="matrix(1.50645 -.79561 .50912 1.17786 -199.194 54.208)"/><path id="leaf4" fill="#00a40b" d="M137 265.75c0-.414-.274-.75-.612-.75h-3.276c-.338 0-.612.336-.612.75s.274.75.612.75h3.276c.338 0 .612-.336.612-.75Z" transform="matrix(1.38346 .87059 -.71014 1.12849 142.118 -153.281)"/><path id="leaf5" fill="#00a40b" d="M137 265.75c0-.414-.274-.75-.612-.75h-3.276c-.338 0-.612.336-.612.75s.274.75.612.75h3.276c.338 0 .612-.336.612-.75Z" transform="matrix(1.62104 .21008 -.17136 1.32228 -32.152 -118.123)"/></g></g></svg>