<?xml version="1.0" encoding="UTF-8" standalone="no"?>
<!DOCTYPE svg PUBLIC "-//W3C//DTD SVG 1.1//EN" "http://www.w3.org/Graphics/SVG/1.1/DTD/svg11.dtd">
<svg width="100%" height="100%" viewBox="0 0 48 48" version="1.1" xmlns="http://www.w3.org/2000/svg" xmlns:xlink="http://www.w3.org/1999/xlink" xml:space="preserve" xmlns:serif="http://www.serif.com/" style="fill-rule:evenodd;clip-rule:evenodd;stroke-linejoin:round;stroke-miterlimit:2;">
    <g id="groups_FILL0_wght400_GRAD0_opsz48.svg" transform="matrix(1,0,0,1,24,24)">
        <g transform="matrix(1,0,0,1,-24,-24)">
            <path d="M0,36L0,33.35C0,32.05 0.7,31 2.1,30.2C3.5,29.4 5.3,29 7.5,29C7.933,29 8.333,29.008 8.7,29.025C9.067,29.042 9.433,29.083 9.8,29.15C9.533,29.717 9.333,30.292 9.2,30.875C9.067,31.458 9,32.083 9,32.75L9,36L0,36ZM12,36L12,32.75C12,30.583 13.108,28.833 15.325,27.5C17.542,26.167 20.433,25.5 24,25.5C27.6,25.5 30.5,26.167 32.7,27.5C34.9,28.833 36,30.583 36,32.75L36,36L12,36ZM39,36L39,32.75C39,32.083 38.942,31.458 38.825,30.875C38.708,30.292 38.517,29.717 38.25,29.15C38.617,29.083 38.983,29.042 39.35,29.025C39.717,29.008 40.1,29 40.5,29C42.767,29 44.583,29.4 45.95,30.2C47.317,31 48,32.05 48,33.35L48,36L39,36ZM24,28.5C21.333,28.5 19.167,28.9 17.5,29.7C15.833,30.5 15,31.517 15,32.75L15,33L33,33L33,32.7C33,31.5 32.175,30.5 30.525,29.7C28.875,28.9 26.7,28.5 24,28.5ZM7.5,27.5C6.533,27.5 5.708,27.158 5.025,26.475C4.342,25.792 4,24.967 4,24C4,23.033 4.342,22.208 5.025,21.525C5.708,20.842 6.533,20.5 7.5,20.5C8.467,20.5 9.292,20.842 9.975,21.525C10.658,22.208 11,23.033 11,24C11,24.967 10.658,25.792 9.975,26.475C9.292,27.158 8.467,27.5 7.5,27.5ZM40.5,27.5C39.533,27.5 38.708,27.158 38.025,26.475C37.342,25.792 37,24.967 37,24C37,23.033 37.342,22.208 38.025,21.525C38.708,20.842 39.533,20.5 40.5,20.5C41.467,20.5 42.292,20.842 42.975,21.525C43.658,22.208 44,23.033 44,24C44,24.967 43.658,25.792 42.975,26.475C42.292,27.158 41.467,27.5 40.5,27.5ZM24,24C22.333,24 20.917,23.417 19.75,22.25C18.583,21.083 18,19.667 18,18C18,16.3 18.583,14.875 19.75,13.725C20.917,12.575 22.333,12 24,12C25.7,12 27.125,12.575 28.275,13.725C29.425,14.875 30,16.3 30,18C30,19.667 29.425,21.083 28.275,22.25C27.125,23.417 25.7,24 24,24ZM24,15C23.167,15 22.458,15.283 21.875,15.85C21.292,16.417 21,17.133 21,18C21,18.833 21.292,19.542 21.875,20.125C22.458,20.708 23.167,21 24,21C24.867,21 25.583,20.708 26.15,20.125C26.717,19.542 27,18.833 27,18C27,17.133 26.717,16.417 26.15,15.85C25.583,15.283 24.867,15 24,15Z" style="fill-rule:nonzero;"/>
        </g>
    </g>
</svg>
