<?xml version="1.0" encoding="UTF-8" standalone="no"?>
<!DOCTYPE svg PUBLIC "-//W3C//DTD SVG 1.1//EN" "http://www.w3.org/Graphics/SVG/1.1/DTD/svg11.dtd">
<svg width="100%" height="100%" viewBox="0 0 40 37" version="1.1" xmlns="http://www.w3.org/2000/svg" xmlns:xlink="http://www.w3.org/1999/xlink" xml:space="preserve" xmlns:serif="http://www.serif.com/" style="fill-rule:evenodd;clip-rule:evenodd;stroke-linejoin:round;stroke-miterlimit:2;">
    <g transform="matrix(1,0,0,1,-4,-5.3)">
        <path d="M24,41.95L21.95,40.1C18.417,36.867 15.5,34.075 13.2,31.725C10.9,29.375 9.067,27.275 7.7,25.425C6.333,23.575 5.375,21.9 4.825,20.4C4.275,18.9 4,17.383 4,15.85C4,12.85 5.008,10.342 7.025,8.325C9.042,6.308 11.533,5.3 14.5,5.3C16.4,5.3 18.158,5.75 19.775,6.65C21.392,7.55 22.8,8.85 24,10.55C25.4,8.75 26.883,7.425 28.45,6.575C30.017,5.725 31.7,5.3 33.5,5.3C36.467,5.3 38.958,6.308 40.975,8.325C42.992,10.342 44,12.85 44,15.85C44,17.383 43.725,18.9 43.175,20.4C42.625,21.9 41.667,23.575 40.3,25.425C38.933,27.275 37.1,29.375 34.8,31.725C32.5,34.075 29.583,36.867 26.05,40.1L24,41.95ZM24,38C27.367,34.9 30.142,32.242 32.325,30.025C34.508,27.808 36.242,25.867 37.525,24.2C38.808,22.533 39.708,21.05 40.225,19.75C40.742,18.45 41,17.15 41,15.85C41,13.65 40.3,11.842 38.9,10.425C37.5,9.008 35.7,8.3 33.5,8.3C31.8,8.3 30.217,8.825 28.75,9.875C27.283,10.925 26.1,12.4 25.2,14.3L22.75,14.3C21.883,12.433 20.717,10.967 19.25,9.9C17.783,8.833 16.2,8.3 14.5,8.3C12.3,8.3 10.5,9.008 9.1,10.425C7.7,11.842 7,13.65 7,15.85C7,17.15 7.258,18.458 7.775,19.775C8.292,21.092 9.192,22.592 10.475,24.275C11.758,25.958 13.5,27.9 15.7,30.1C17.9,32.3 20.667,34.933 24,38Z" style="fill-rule:nonzero;"/>
    </g>
</svg>
