<?xml version="1.0" encoding="UTF-8" standalone="no"?>
<!DOCTYPE svg PUBLIC "-//W3C//DTD SVG 1.1//EN" "http://www.w3.org/Graphics/SVG/1.1/DTD/svg11.dtd">
<svg width="100%" height="100%" viewBox="0 0 48 48" version="1.1" xmlns="http://www.w3.org/2000/svg" xmlns:xlink="http://www.w3.org/1999/xlink" xml:space="preserve" xmlns:serif="http://www.serif.com/" style="fill-rule:evenodd;clip-rule:evenodd;stroke-linejoin:round;stroke-miterlimit:2;">
    <g id="history_FILL0_wght400_GRAD0_opsz48.svg" transform="matrix(1,0,0,1,24,24)">
        <g transform="matrix(1,0,0,1,-24,-24)">
            <path d="M23.85,42C18.883,42 14.667,40.242 11.2,36.725C7.733,33.208 6,28.95 6,23.95L9,23.95C9,28.117 10.433,31.667 13.3,34.6C16.167,37.533 19.683,39 23.85,39C28.083,39 31.667,37.517 34.6,34.55C37.533,31.583 39,27.983 39,23.75C39,19.617 37.517,16.125 34.55,13.275C31.583,10.425 28.017,9 23.85,9C21.583,9 19.458,9.517 17.475,10.55C15.492,11.583 13.767,12.95 12.3,14.65L17.55,14.65L17.55,17.65L7.1,17.65L7.1,7.25L10.1,7.25L10.1,12.55C11.833,10.517 13.892,8.917 16.275,7.75C18.658,6.583 21.183,6 23.85,6C26.35,6 28.7,6.467 30.9,7.4C33.1,8.333 35.025,9.608 36.675,11.225C38.325,12.842 39.625,14.733 40.575,16.9C41.525,19.067 42,21.4 42,23.9C42,26.4 41.525,28.75 40.575,30.95C39.625,33.15 38.325,35.067 36.675,36.7C35.025,38.333 33.1,39.625 30.9,40.575C28.7,41.525 26.35,42 23.85,42ZM30.25,32.15L22.55,24.55L22.55,13.85L25.55,13.85L25.55,23.3L32.4,30L30.25,32.15Z" style="fill-rule:nonzero;"/>
        </g>
    </g>
</svg>
