<svg xmlns="http://www.w3.org/2000/svg" xml:space="preserve" fill-rule="evenodd" stroke-linejoin="round" stroke-miterlimit="2" clip-rule="evenodd" viewBox="0 0 200 200"><g transform="translate(-912.5 -1350) scale(4.16667)"><g transform="matrix(.96 0 0 1.15696 -21 -7.484)"><ellipse id="Base" cx="275" cy="307.256" fill="#cbcbcb" rx="25" ry="20.744"/></g><g id="light-greys" transform="translate(-31 37.488)"><ellipse id="light-grey" cx="261" cy="299.5" fill="#a6a6a6" rx="1" ry="2.5"/><ellipse id="light-grey1" cx="261.5" cy="308" fill="#a6a6a6" rx="1.5" ry="2"/><circle id="light-grey2" cx="269" cy="318" r="2" fill="#a6a6a6"/><ellipse id="light-grey3" cx="277" cy="309.5" fill="#a6a6a6" rx="2" ry="2.5"/><ellipse id="light-grey4" cx="284" cy="302.5" fill="#a6a6a6" rx="2" ry="1.5"/><ellipse id="light-grey5" cx="275.5" cy="297.25" fill="#a6a6a6" rx="1.5" ry="2.25"/><circle id="light-grey6" cx="283" cy="326" r="4" fill="#a6a6a6"/><ellipse id="light-grey7" cx="268.5" cy="327" fill="#a6a6a6" rx="3.5" ry="3"/><ellipse id="light-grey8" cx="256.5" cy="321.5" fill="#a6a6a6" rx=".5" ry="1.5"/><ellipse id="light-grey9" cx="251.5" cy="312.5" fill="#a6a6a6" rx=".5" ry="1.5"/><ellipse id="light-grey10" cx="273" cy="288.5" fill="#a6a6a6" rx="2" ry=".5"/><ellipse id="light-grey11" cx="289.5" cy="299.5" fill="#a6a6a6" rx=".5" ry="1.5"/><circle id="light-grey12" cx="289" cy="316" r="1" fill="#a6a6a6"/><ellipse id="light-grey13" cx="295" cy="313" fill="#a6a6a6" rx="2" ry="3"/><ellipse id="light-grey14" cx="259.5" cy="295.5" fill="#a6a6a6" rx="1.5" ry=".5"/><ellipse id="light-grey15" cx="291" cy="297.5" fill="#a6a6a6" rx="1" ry="1.5"/></g><g id="dark-greys" transform="translate(-31 37.488)"><ellipse id="dark-grey" cx="275" cy="307.5" fill="#838383" rx="1" ry=".5"/><circle id="dark-grey1" cx="281" cy="325" r="1" fill="#838383"/><ellipse id="dark-grey2" cx="296" cy="315.5" fill="#838383" rx="1" ry="1.5"/><circle id="dark-grey3" cx="257.5" cy="307.5" r="1.5" fill="#838383"/><circle id="dark-grey4" cx="269" cy="294" r="3" fill="#838383"/><ellipse id="dark-grey5" cx="264.5" cy="308.756" fill="#838383" rx="1.5" ry="1.756"/><circle id="dark-grey6" cx="273.5" cy="327.5" r="1.5" fill="#838383"/></g></g></svg>