<?xml version="1.0" encoding="UTF-8" standalone="no"?>
<!DOCTYPE svg PUBLIC "-//W3C//DTD SVG 1.1//EN" "http://www.w3.org/Graphics/SVG/1.1/DTD/svg11.dtd">
<svg width="100%" height="100%" viewBox="0 0 48 48" version="1.1" xmlns="http://www.w3.org/2000/svg" xmlns:xlink="http://www.w3.org/1999/xlink" xml:space="preserve" xmlns:serif="http://www.serif.com/" style="fill-rule:evenodd;clip-rule:evenodd;stroke-linejoin:round;stroke-miterlimit:2;">
    <g id="verified_user_FILL0_wght400_GRAD0_opsz48.svg" transform="matrix(1,0,0,1,24,24)">
        <g transform="matrix(1,0,0,1,-24,-24)">
            <path d="M21.8,30.65L33.2,19.25L31.1,17.2L21.95,26.35L16.9,21.3L14.7,23.5L21.8,30.65ZM24,43.95C19.333,42.783 15.5,40.075 12.5,35.825C9.5,31.575 8,26.917 8,21.85L8,9.95L24,3.95L40,9.95L40,21.85C40,26.917 38.5,31.575 35.5,35.825C32.5,40.075 28.667,42.783 24,43.95ZM24,40.85C27.833,39.583 30.958,37.192 33.375,33.675C35.792,30.158 37,26.217 37,21.85L37,12.05L24,7.15L11,12.05L11,21.85C11,26.217 12.208,30.158 14.625,33.675C17.042,37.192 20.167,39.583 24,40.85Z" style="fill-rule:nonzero;"/>
        </g>
    </g>
</svg>
