<?xml version="1.0" encoding="UTF-8" standalone="no"?>
<!DOCTYPE svg PUBLIC "-//W3C//DTD SVG 1.1//EN" "http://www.w3.org/Graphics/SVG/1.1/DTD/svg11.dtd">
<svg width="100%" height="100%" viewBox="0 0 48 48" version="1.1" xmlns="http://www.w3.org/2000/svg" xmlns:xlink="http://www.w3.org/1999/xlink" xml:space="preserve" xmlns:serif="http://www.serif.com/" style="fill-rule:evenodd;clip-rule:evenodd;stroke-linejoin:round;stroke-miterlimit:2;">
    <g id="account_box_FILL0_wght400_GRAD0_opsz48.svg" transform="matrix(1,0,0,1,24,24)">
        <g transform="matrix(1,0,0,1,-24,-24)">
            <path d="M9,37.15C11,35.283 13.267,33.775 15.8,32.625C18.333,31.475 21.067,30.9 24,30.9C26.933,30.9 29.667,31.475 32.2,32.625C34.733,33.775 37,35.283 39,37.15L39,9L9,9L9,37.15ZM24.1,26.95C26.033,26.95 27.667,26.283 29,24.95C30.333,23.617 31,21.983 31,20.05C31,18.117 30.333,16.483 29,15.15C27.667,13.817 26.033,13.15 24.1,13.15C22.167,13.15 20.533,13.817 19.2,15.15C17.867,16.483 17.2,18.117 17.2,20.05C17.2,21.983 17.867,23.617 19.2,24.95C20.533,26.283 22.167,26.95 24.1,26.95ZM9,42C8.2,42 7.5,41.7 6.9,41.1C6.3,40.5 6,39.8 6,39L6,9C6,8.2 6.3,7.5 6.9,6.9C7.5,6.3 8.2,6 9,6L39,6C39.8,6 40.5,6.3 41.1,6.9C41.7,7.5 42,8.2 42,9L42,39C42,39.8 41.7,40.5 41.1,41.1C40.5,41.7 39.8,42 39,42L9,42ZM11.75,39L36.25,39L36.25,38.55C34.45,37.017 32.517,35.858 30.45,35.075C28.383,34.292 26.233,33.9 24,33.9C21.767,33.9 19.617,34.292 17.55,35.075C15.483,35.858 13.55,37.017 11.75,38.55L11.75,39ZM24.1,23.95C23.033,23.95 22.117,23.567 21.35,22.8C20.583,22.033 20.2,21.117 20.2,20.05C20.2,18.95 20.583,18.025 21.35,17.275C22.117,16.525 23.033,16.15 24.1,16.15C25.2,16.15 26.125,16.525 26.875,17.275C27.625,18.025 28,18.95 28,20.05C28,21.117 27.625,22.033 26.875,22.8C26.125,23.567 25.2,23.95 24.1,23.95Z" style="fill-rule:nonzero;"/>
        </g>
    </g>
</svg>
