<?xml version="1.0" encoding="UTF-8" standalone="no"?>
<!DOCTYPE svg PUBLIC "-//W3C//DTD SVG 1.1//EN" "http://www.w3.org/Graphics/SVG/1.1/DTD/svg11.dtd">
<svg width="100%" height="100%" viewBox="0 0 48 48" version="1.1" xmlns="http://www.w3.org/2000/svg" xmlns:xlink="http://www.w3.org/1999/xlink" xml:space="preserve" xmlns:serif="http://www.serif.com/" style="fill-rule:evenodd;clip-rule:evenodd;stroke-linejoin:round;stroke-miterlimit:2;">
    <g id="settings_FILL0_wght400_GRAD0_opsz48.svg" transform="matrix(1,0,0,1,24,24)">
        <g transform="matrix(1,0,0,1,-24,-24)">
            <path d="M19.4,44L18.4,37.7C17.767,37.467 17.1,37.15 16.4,36.75C15.7,36.35 15.083,35.933 14.55,35.5L8.65,38.2L4,30L9.4,26.05C9.333,25.75 9.292,25.408 9.275,25.025C9.258,24.642 9.25,24.3 9.25,24C9.25,23.7 9.258,23.358 9.275,22.975C9.292,22.592 9.333,22.25 9.4,21.95L4,18L8.65,9.8L14.55,12.5C15.083,12.067 15.7,11.65 16.4,11.25C17.1,10.85 17.767,10.55 18.4,10.35L19.4,4L28.6,4L29.6,10.3C30.233,10.533 30.908,10.842 31.625,11.225C32.342,11.608 32.95,12.033 33.45,12.5L39.35,9.8L44,18L38.6,21.85C38.667,22.183 38.708,22.542 38.725,22.925C38.742,23.308 38.75,23.667 38.75,24C38.75,24.333 38.742,24.683 38.725,25.05C38.708,25.417 38.667,25.767 38.6,26.1L44,30L39.35,38.2L33.45,35.5C32.917,35.933 32.308,36.358 31.625,36.775C30.942,37.192 30.267,37.5 29.6,37.7L28.6,44L19.4,44ZM24,30.5C25.8,30.5 27.333,29.867 28.6,28.6C29.867,27.333 30.5,25.8 30.5,24C30.5,22.2 29.867,20.667 28.6,19.4C27.333,18.133 25.8,17.5 24,17.5C22.2,17.5 20.667,18.133 19.4,19.4C18.133,20.667 17.5,22.2 17.5,24C17.5,25.8 18.133,27.333 19.4,28.6C20.667,29.867 22.2,30.5 24,30.5ZM24,27.5C23.033,27.5 22.208,27.158 21.525,26.475C20.842,25.792 20.5,24.967 20.5,24C20.5,23.033 20.842,22.208 21.525,21.525C22.208,20.842 23.033,20.5 24,20.5C24.967,20.5 25.792,20.842 26.475,21.525C27.158,22.208 27.5,23.033 27.5,24C27.5,24.967 27.158,25.792 26.475,26.475C25.792,27.158 24.967,27.5 24,27.5ZM21.8,41L26.2,41L26.9,35.4C28,35.133 29.042,34.717 30.025,34.15C31.008,33.583 31.9,32.9 32.7,32.1L38,34.4L40,30.8L35.3,27.35C35.433,26.783 35.542,26.225 35.625,25.675C35.708,25.125 35.75,24.567 35.75,24C35.75,23.433 35.717,22.875 35.65,22.325C35.583,21.775 35.467,21.217 35.3,20.65L40,17.2L38,13.6L32.7,15.9C31.933,15.033 31.067,14.308 30.1,13.725C29.133,13.142 28.067,12.767 26.9,12.6L26.2,7L21.8,7L21.1,12.6C19.967,12.833 18.908,13.233 17.925,13.8C16.942,14.367 16.067,15.067 15.3,15.9L10,13.6L8,17.2L12.7,20.65C12.567,21.217 12.458,21.775 12.375,22.325C12.292,22.875 12.25,23.433 12.25,24C12.25,24.567 12.292,25.125 12.375,25.675C12.458,26.225 12.567,26.783 12.7,27.35L8,30.8L10,34.4L15.3,32.1C16.1,32.9 16.992,33.583 17.975,34.15C18.958,34.717 20,35.133 21.1,35.4L21.8,41Z" style="fill-rule:nonzero;"/>
        </g>
    </g>
</svg>
