<?xml version="1.0" encoding="UTF-8" standalone="no"?>
<!DOCTYPE svg PUBLIC "-//W3C//DTD SVG 1.1//EN" "http://www.w3.org/Graphics/SVG/1.1/DTD/svg11.dtd">
<svg width="100%" height="100%" viewBox="0 0 48 48" version="1.1" xmlns="http://www.w3.org/2000/svg" xmlns:xlink="http://www.w3.org/1999/xlink" xml:space="preserve" xmlns:serif="http://www.serif.com/" style="fill-rule:evenodd;clip-rule:evenodd;stroke-linejoin:round;stroke-miterlimit:2;">
    <g id="share_FILL0_wght400_GRAD0_opsz48.svg" transform="matrix(1,0,0,1,24,24)">
        <g transform="matrix(1,0,0,1,-24,-24)">
            <path d="M36.35,44C34.783,44 33.442,43.442 32.325,42.325C31.208,41.208 30.65,39.867 30.65,38.3C30.65,38.067 30.675,37.792 30.725,37.475C30.775,37.158 30.85,36.867 30.95,36.6L15.8,27.8C15.3,28.367 14.683,28.825 13.95,29.175C13.217,29.525 12.467,29.7 11.7,29.7C10.133,29.7 8.792,29.142 7.675,28.025C6.558,26.908 6,25.567 6,24C6,22.4 6.558,21.05 7.675,19.95C8.792,18.85 10.133,18.3 11.7,18.3C12.467,18.3 13.2,18.45 13.9,18.75C14.6,19.05 15.233,19.483 15.8,20.05L30.95,11.35C30.85,11.117 30.775,10.85 30.725,10.55C30.675,10.25 30.65,9.967 30.65,9.7C30.65,8.1 31.208,6.75 32.325,5.65C33.442,4.55 34.783,4 36.35,4C37.95,4 39.3,4.55 40.4,5.65C41.5,6.75 42.05,8.1 42.05,9.7C42.05,11.267 41.5,12.608 40.4,13.725C39.3,14.842 37.95,15.4 36.35,15.4C35.583,15.4 34.842,15.275 34.125,15.025C33.408,14.775 32.8,14.367 32.3,13.8L17.15,22.2C17.217,22.467 17.275,22.775 17.325,23.125C17.375,23.475 17.4,23.767 17.4,24C17.4,24.233 17.375,24.483 17.325,24.75C17.275,25.017 17.217,25.283 17.15,25.55L32.3,34.15C32.8,33.683 33.383,33.308 34.05,33.025C34.717,32.742 35.483,32.6 36.35,32.6C37.95,32.6 39.3,33.15 40.4,34.25C41.5,35.35 42.05,36.7 42.05,38.3C42.05,39.867 41.5,41.208 40.4,42.325C39.3,43.442 37.95,44 36.35,44ZM36.35,12.4C37.117,12.4 37.758,12.142 38.275,11.625C38.792,11.108 39.05,10.467 39.05,9.7C39.05,8.933 38.792,8.292 38.275,7.775C37.758,7.258 37.117,7 36.35,7C35.583,7 34.942,7.258 34.425,7.775C33.908,8.292 33.65,8.933 33.65,9.7C33.65,10.467 33.908,11.108 34.425,11.625C34.942,12.142 35.583,12.4 36.35,12.4ZM11.7,26.7C12.467,26.7 13.108,26.442 13.625,25.925C14.142,25.408 14.4,24.767 14.4,24C14.4,23.233 14.142,22.592 13.625,22.075C13.108,21.558 12.467,21.3 11.7,21.3C10.933,21.3 10.292,21.558 9.775,22.075C9.258,22.592 9,23.233 9,24C9,24.767 9.258,25.408 9.775,25.925C10.292,26.442 10.933,26.7 11.7,26.7ZM36.35,41C37.117,41 37.758,40.742 38.275,40.225C38.792,39.708 39.05,39.067 39.05,38.3C39.05,37.533 38.792,36.892 38.275,36.375C37.758,35.858 37.117,35.6 36.35,35.6C35.583,35.6 34.942,35.858 34.425,36.375C33.908,36.892 33.65,37.533 33.65,38.3C33.65,39.067 33.908,39.708 34.425,40.225C34.942,40.742 35.583,41 36.35,41Z" style="fill-rule:nonzero;"/>
        </g>
    </g>
</svg>
