<?xml version="1.0" encoding="UTF-8" standalone="no"?>
<!DOCTYPE svg PUBLIC "-//W3C//DTD SVG 1.1//EN" "http://www.w3.org/Graphics/SVG/1.1/DTD/svg11.dtd">
<svg width="100%" height="100%" viewBox="0 0 48 48" version="1.1" xmlns="http://www.w3.org/2000/svg" xmlns:xlink="http://www.w3.org/1999/xlink" xml:space="preserve" xmlns:serif="http://www.serif.com/" style="fill-rule:evenodd;clip-rule:evenodd;stroke-linejoin:round;stroke-miterlimit:2;">
    <g id="help_center_FILL0_wght400_GRAD0_opsz48.svg" transform="matrix(1,0,0,1,24,24)">
        <g transform="matrix(1,0,0,1,-24,-24)">
            <path d="M23.85,35.7C24.383,35.7 24.833,35.517 25.2,35.15C25.567,34.783 25.75,34.333 25.75,33.8C25.75,33.267 25.567,32.817 25.2,32.45C24.833,32.083 24.383,31.9 23.85,31.9C23.317,31.9 22.867,32.083 22.5,32.45C22.133,32.817 21.95,33.267 21.95,33.8C21.95,34.333 22.133,34.783 22.5,35.15C22.867,35.517 23.317,35.7 23.85,35.7ZM22.2,28.3L25.05,28.3C25.05,27.267 25.217,26.425 25.55,25.775C25.883,25.125 26.467,24.383 27.3,23.55C28.4,22.45 29.167,21.475 29.6,20.625C30.033,19.775 30.25,18.883 30.25,17.95C30.25,16.183 29.683,14.783 28.55,13.75C27.417,12.717 25.883,12.2 23.95,12.2C22.25,12.2 20.792,12.608 19.575,13.425C18.358,14.242 17.467,15.367 16.9,16.8L19.55,17.9C20.017,16.967 20.617,16.258 21.35,15.775C22.083,15.292 22.95,15.05 23.95,15.05C25.017,15.05 25.858,15.317 26.475,15.85C27.092,16.383 27.4,17.117 27.4,18.05C27.4,18.717 27.217,19.358 26.85,19.975C26.483,20.592 25.867,21.317 25,22.15C23.767,23.317 22.992,24.317 22.675,25.15C22.358,25.983 22.2,27.033 22.2,28.3ZM9,42C8.2,42 7.5,41.7 6.9,41.1C6.3,40.5 6,39.8 6,39L6,9C6,8.2 6.3,7.5 6.9,6.9C7.5,6.3 8.2,6 9,6L39,6C39.8,6 40.5,6.3 41.1,6.9C41.7,7.5 42,8.2 42,9L42,39C42,39.8 41.7,40.5 41.1,41.1C40.5,41.7 39.8,42 39,42L9,42ZM9,39L39,39L39,9L9,9L9,39ZM9,9L9,39L9,9Z" style="fill-rule:nonzero;"/>
        </g>
    </g>
</svg>
