<?xml version="1.0" encoding="UTF-8" standalone="no"?>
<!DOCTYPE svg PUBLIC "-//W3C//DTD SVG 1.1//EN" "http://www.w3.org/Graphics/SVG/1.1/DTD/svg11.dtd">
<svg width="100%" height="100%" viewBox="0 0 48 48" version="1.1" xmlns="http://www.w3.org/2000/svg" xmlns:xlink="http://www.w3.org/1999/xlink" xml:space="preserve" xmlns:serif="http://www.serif.com/" style="fill-rule:evenodd;clip-rule:evenodd;stroke-linejoin:round;stroke-miterlimit:2;">
    <g id="visibility_FILL0_wght400_GRAD0_opsz48.svg" transform="matrix(1,0,0,1,24,24)">
        <g transform="matrix(1,0,0,1,-24,-24)">
            <path d="M24,31.5C26.367,31.5 28.375,30.675 30.025,29.025C31.675,27.375 32.5,25.367 32.5,23C32.5,20.633 31.675,18.625 30.025,16.975C28.375,15.325 26.367,14.5 24,14.5C21.633,14.5 19.625,15.325 17.975,16.975C16.325,18.625 15.5,20.633 15.5,23C15.5,25.367 16.325,27.375 17.975,29.025C19.625,30.675 21.633,31.5 24,31.5ZM24,28.6C22.433,28.6 21.108,28.058 20.025,26.975C18.942,25.892 18.4,24.567 18.4,23C18.4,21.433 18.942,20.108 20.025,19.025C21.108,17.942 22.433,17.4 24,17.4C25.567,17.4 26.892,17.942 27.975,19.025C29.058,20.108 29.6,21.433 29.6,23C29.6,24.567 29.058,25.892 27.975,26.975C26.892,28.058 25.567,28.6 24,28.6ZM24,38C19.133,38 14.733,36.617 10.8,33.85C6.867,31.083 3.933,27.467 2,23C3.933,18.533 6.867,14.917 10.8,12.15C14.733,9.383 19.133,8 24,8C28.867,8 33.267,9.383 37.2,12.15C41.133,14.917 44.067,18.533 46,23C44.067,27.467 41.133,31.083 37.2,33.85C33.267,36.617 28.867,38 24,38ZM24,35C28.033,35 31.742,33.908 35.125,31.725C38.508,29.542 41.083,26.633 42.85,23C41.083,19.367 38.508,16.458 35.125,14.275C31.742,12.092 28.033,11 24,11C19.967,11 16.258,12.092 12.875,14.275C9.492,16.458 6.9,19.367 5.1,23C6.9,26.633 9.492,29.542 12.875,31.725C16.258,33.908 19.967,35 24,35Z" style="fill-rule:nonzero;"/>
        </g>
    </g>
</svg>
